<?xml version="1.0" encoding="utf-8"?>
<!-- Generator: Adobe Illustrator 22.1.0, SVG Export Plug-In . SVG Version: 6.00 Build 0)  -->
<svg version="1.1" id="Layer_1" xmlns="http://www.w3.org/2000/svg" xmlns:xlink="http://www.w3.org/1999/xlink" x="0px" y="0px"
	 width="170px" height="62px" viewBox="0 0 170 62" style="enable-background:new 0 0 170 62;" xml:space="preserve">
<style type="text/css">
	.st0{fill:none;}
	.st1{fill:#FFFFFF;}
	.st2{fill:#231F20;}
	.st3{fill:#F48120;}
</style>
<g>
	<path class="st0" d="M96.5,49.4c0,0.6,0.2,1.1,0.7,1.4s1.1,0.5,1.9,0.5c0.8,0.1,1.5-0.1,2.2-0.5c0.6-0.4,1.1-0.9,1.3-1.6v-1.7h-3.2
		C97.5,47.5,96.5,48.1,96.5,49.4z"/>
	<path class="st0" d="M153.4,15.4c-0.7-0.6-1.6-0.9-2.6-0.9c-1.1-0.1-2,0.2-2.7,0.8s-1.2,1.4-1.3,2.5h7.9
		C154.5,16.8,154.1,16,153.4,15.4z"/>
	<path class="st0" d="M71.6,23.7c1.3,0,2.3-0.4,3-1.2c0.8-0.8,1.2-1.9,1.2-3.3s-0.4-2.4-1.2-3.3c-0.8-0.8-1.8-1.2-3-1.2
		s-2.2,0.4-3,1.2c-0.8,0.8-1.2,1.9-1.2,3.3s0.4,2.4,1.2,3.3C69.4,23.3,70.4,23.7,71.6,23.7z"/>
	<path class="st0" d="M137.8,41.7c-1.2,0-2.2,0.4-3,1.2s-1.2,1.9-1.2,3.3c0,1.4,0.4,2.4,1.2,3.3c0.8,0.8,1.8,1.2,3,1.2
		c1.3,0,2.2-0.4,3-1.2s1.2-1.9,1.2-3.3c0-1.4-0.4-2.4-1.2-3.3C140,42.1,139,41.7,137.8,41.7z"/>
	<path class="st0" d="M153,49.4c0,0.6,0.2,1.1,0.7,1.4s1.1,0.5,1.9,0.5c0.9,0.1,1.6-0.1,2.2-0.5c0.6-0.4,1.1-0.9,1.3-1.6v-1.7h-3.2
		C154,47.5,153,48.1,153,49.4z"/>
	<path class="st1" d="M67.1,26.5c1.3,0.7,2.9,1,4.6,1.1c1.7,0,3.3-0.3,4.6-1.1s2.3-1.7,3.1-3c0.7-1.3,1.1-2.7,1.1-4.3
		c0-1.6-0.3-3-1.1-4.3c-0.7-1.3-1.8-2.3-3.1-3c-1.4-0.7-2.9-1.1-4.6-1.1s-3.2,0.4-4.6,1.1c-1.4,0.8-2.4,1.7-3.2,3
		c-0.7,1.3-1.1,2.7-1.1,4.3s0.3,3,1.1,4.3S65.7,25.8,67.1,26.5z M68.6,15.9c0.8-0.8,1.8-1.2,3-1.2s2.2,0.4,3,1.2
		c0.8,0.9,1.2,1.9,1.2,3.3s-0.4,2.5-1.2,3.3c-0.7,0.8-1.7,1.2-3,1.2c-1.2,0-2.2-0.4-3-1.2c-0.8-0.9-1.2-1.9-1.2-3.3
		S67.8,16.7,68.6,15.9z"/>
	<path class="st1" d="M88.3,19.3c0-1.5,0.4-2.6,1.1-3.3c0.7-0.7,1.6-1.1,2.8-1.1c1,0,1.8,0.3,2.4,0.9c0.5,0.7,0.8,1.6,0.8,2.9v8.5
		h4.7V18c0-2.3-0.6-4.1-1.8-5.3s-2.8-1.8-4.9-1.9c-1.1,0-2.1,0.2-3,0.6c-0.9,0.4-1.7,0.9-2.3,1.6v-1.9h-4.5v16.2h4.7
		C88.3,27.3,88.3,19.3,88.3,19.3z"/>
	<rect x="104.4" y="5" class="st1" width="4.7" height="22.3"/>
	<path class="st1" d="M115.7,8.7c0.9,0,1.6-0.3,2.1-0.8s0.8-1.1,0.8-1.9c0-0.7-0.3-1.3-0.8-1.8s-1.2-0.7-2.1-0.7s-1.6,0.3-2.1,0.8
		s-0.8,1.2-0.8,1.9c0,0.8,0.3,1.4,0.8,1.9C114.2,8.6,114.8,8.7,115.7,8.7z"/>
	<rect x="113.4" y="11.1" class="st1" width="4.7" height="16.1"/>
	<path class="st1" d="M133.4,15.8c0.5,0.7,0.8,1.6,0.8,2.9v8.5h4.7V18c0-2.3-0.6-4.1-1.8-5.3s-2.9-1.8-4.8-1.9c-1.1,0-2.1,0.2-3,0.6
		c-0.9,0.4-1.7,0.9-2.3,1.6v-1.9h-4.5v16.3h4.7v-8c0-1.5,0.3-2.6,1-3.3c0.7-0.7,1.6-1.1,2.8-1.1C132,15,132.9,15.1,133.4,15.8z"/>
	<path class="st1" d="M146.6,26.4c1.4,0.7,3,1.1,4.8,1.1c3,0,5.2-0.9,6.7-2.6l-2.5-2.7c-0.5,0.6-1.2,1-1.8,1.2
		c-0.6,0.3-1.4,0.4-2.2,0.4c-1.3,0-2.3-0.3-3.1-0.9c-0.9-0.6-1.4-1.4-1.6-2.4h12.2c0-0.7,0.1-1.2,0.2-1.5c0-1.7-0.4-3.1-1.1-4.4
		c-0.7-1.2-1.7-2.2-3-2.9s-2.7-1-4.3-1s-3.1,0.4-4.4,1.1c-1.3,0.7-2.4,1.7-3.1,3c-0.7,1.3-1.1,2.7-1.1,4.3s0.3,3,1.1,4.3
		C144.1,24.7,145.2,25.7,146.6,26.4z M148.1,15.3c0.7-0.6,1.6-0.9,2.7-0.8c1,0,1.9,0.3,2.6,0.9c0.7,0.6,1.1,1.4,1.3,2.4h-7.9
		C146.9,16.7,147.4,15.9,148.1,15.3z"/>
	<path class="st1" d="M74,45.1c-0.8-0.2-1.9-0.5-3.2-0.7c-1.2-0.2-2.1-0.4-2.6-0.6c-0.5-0.1-0.8-0.5-0.8-1s0.3-0.8,0.8-1.1
		c0.4-0.3,1.2-0.4,2.2-0.4c1.6,0,3.2,0.4,4.6,1.2l1.6-3.3c-0.7-0.4-1.7-0.8-2.8-1c-1.1-0.3-2.3-0.4-3.4-0.4c-1.5,0-2.9,0.3-4,0.7
		c-1.2,0.4-2,1-2.6,1.8S62.9,42,62.9,43c0,1.2,0.3,2.1,0.9,2.8c0.6,0.7,1.3,1.1,2.2,1.4s2,0.5,3.3,0.7c1.1,0.1,2,0.3,2.5,0.5
		s0.8,0.5,0.8,1c0,1-1,1.5-3,1.5c-1,0-2-0.1-3-0.4s-1.9-0.6-2.6-1.1l-1.6,3.4c0.8,0.5,1.8,0.9,3.1,1.2c1.3,0.4,2.6,0.5,4,0.4
		c1.6,0,2.9-0.2,4.1-0.6c1.1-0.4,2-1,2.6-1.8s0.9-1.7,0.9-2.7c0-1.2-0.3-2.1-0.9-2.8C75.6,45.8,74.8,45.3,74,45.1z"/>
	<path class="st1" d="M87.2,51c-0.7,0-1.2-0.2-1.5-0.6c-0.3-0.4-0.5-0.9-0.5-1.6v-6.6h4v-3.6h-4v-3.9h-4.7v3.9H78v3.6h2.4v6.6
		c0,1.9,0.5,3.3,1.6,4.3s2.6,1.5,4.5,1.5c0.7,0,1.4-0.1,2.1-0.3s1.2-0.5,1.7-0.8l-1.2-3.1C88.6,50.8,87.9,51,87.2,51z"/>
	<path class="st1" d="M99.5,38c-1.3,0-2.6,0.2-3.8,0.5c-1.3,0.3-2.3,0.8-3.2,1.4l1.7,3.3c0.6-0.5,1.3-0.8,2.1-1.1
		c0.8-0.3,1.6-0.4,2.5-0.4c1.2,0,2.2,0.3,2.8,0.8c0.6,0.6,0.9,1.4,0.9,2.4h-3.7c-2.3,0-4.1,0.4-5.2,1.3c-1.1,0.8-1.7,2-1.7,3.5
		c0,0.9,0.2,1.8,0.7,2.5s1.2,1.3,2.1,1.7s2,0.6,3.2,0.6c2.4,0,4-0.7,4.9-2.2v2h4.4v-9.2c0-2.4-0.7-4.2-2-5.4S102,37.9,99.5,38z
		 M102.6,49.2c-0.2,0.7-0.7,1.2-1.3,1.6c-0.7,0.4-1.4,0.6-2.2,0.5c-0.8,0-1.4-0.2-1.9-0.5s-0.7-0.8-0.7-1.4c0-1.3,1-1.9,2.9-1.9h3.2
		V49.2z"/>
	<polygon class="st1" points="118.1,49.1 113.6,38.1 108.8,38.1 115.6,54.2 120.4,54.2 127.2,38.1 122.7,38.1 	"/>
	<path class="st1" d="M142.8,38.9c-1.3-0.6-2.6-1-4.1-1.1c-2.1,0-3.7,0.7-4.9,2V32h-4.7v22.3h4.5v-1.9c1.2,1.4,2.9,2.1,5.1,2.1
		c1.5,0,2.9-0.3,4.1-1c1.2-0.7,2.2-1.7,2.9-2.9c0.6-1.3,1-2.7,1-4.4s-0.3-3.2-1-4.4S144,39.6,142.8,38.9z M140.8,49.5
		c-0.8,0.8-1.7,1.2-3,1.2c-1.2,0-2.2-0.4-3-1.2c-0.8-0.9-1.2-1.9-1.2-3.3c0-1.4,0.4-2.5,1.2-3.3s1.8-1.2,3-1.2s2.2,0.4,3,1.2
		c0.8,0.9,1.2,1.9,1.2,3.3S141.6,48.7,140.8,49.5z"/>
	<path class="st1" d="M161.8,39.7c-1.3-1.2-3.2-1.8-5.7-1.7c-1.3,0-2.6,0.2-3.8,0.5c-1.3,0.3-2.3,0.8-3.2,1.4l1.7,3.3
		c0.6-0.5,1.3-0.8,2.1-1.1s1.6-0.4,2.5-0.4c1.2,0,2.2,0.3,2.8,0.8c0.6,0.6,0.9,1.4,0.9,2.4h-3.7c-2.3,0-4.1,0.4-5.2,1.3
		c-1.1,0.8-1.7,2-1.7,3.5c0,0.9,0.2,1.8,0.7,2.5s1.2,1.3,2.1,1.7c0.9,0.4,2,0.6,3.2,0.6c2.4,0,4-0.7,4.9-2.2v2h4.4v-9.2
		C163.8,42.7,163.1,40.9,161.8,39.7z M159.1,49.2c-0.2,0.7-0.7,1.2-1.3,1.6c-0.6,0.4-1.3,0.6-2.2,0.5c-0.8,0-1.4-0.2-1.9-0.5
		S153,50,153,49.4c0-1.3,1-1.9,2.9-1.9h3.2L159.1,49.2L159.1,49.2z"/>
</g>
<path class="st2" d="M48,22.1L34.3,1L11.4,14.1l14.5,21.6L48,22.1z M22.7,11.7l8.2-4.9l8.1,5.5l-7.4,4.9l-0.3,11.1l-8.5-12.8
	L22.7,11.7z"/>
<polygon class="st2" points="8,35.7 8,50.5 15.6,46.3 15.6,40.8 "/>
<polygon class="st2" points="24.8,60.9 24.8,61 49.2,45.7 49.4,23.5 24.8,38.7 "/>
<path class="st0" d="M39,12.3l-8.1-5.5l-8.2,4.9l8.9,5.5L39,12.3z M25.3,11.8l5.4-3l5.8,3.3l-5.1,3.5L25.3,11.8z"/>
<polygon class="st3" points="0.3,22.8 0.3,45.7 8,50.5 8,35.7 15.6,40.8 15.6,46.3 15.6,55 24.8,60.9 24.8,38.7 "/>
<polygon class="st3" points="31.6,17.2 22.7,11.7 22.8,15.5 31.3,28.3 "/>
<polygon class="st3" points="30.7,8.8 31.4,15.6 36.5,12.1 "/>
<polygon class="st2" points="25.3,11.8 31.4,15.6 30.7,8.8 "/>
</svg>
