<svg xmlns="http://www.w3.org/2000/svg" xmlns:xlink="http://www.w3.org/1999/xlink" viewBox="0 0 105.8 27.87"><defs><style>.cls-1{fill:#2b2119;}.cls-2{fill:url(#Nepojmenovaný_přechod_101);}.cls-3{fill:url(#Nepojmenovaný_přechod_101-2);}.cls-4{fill:url(#Nepojmenovaný_přechod_101-3);}.cls-5{fill:url(#Nepojmenovaný_přechod_101-4);}.cls-6{fill:url(#Nepojmenovaný_přechod_101-5);}.cls-7{fill:url(#Nepojmenovaný_přechod_101-6);}.cls-8{fill:url(#Nepojmenovaný_přechod_101-7);}.cls-9{fill:url(#Nepojmenovaný_přechod_101-9);}.cls-10{fill:url(#Nepojmenovaný_přechod_101-10);}.cls-11{fill:url(#Nepojmenovaný_přechod_101-11);}.cls-12{fill:url(#Nepojmenovaný_přechod_101-12);}.cls-13{fill:url(#Nepojmenovaný_přechod_101-13);}.cls-14{fill:url(#Nepojmenovaný_přechod_101-15);}.cls-15{fill:url(#Nepojmenovaný_přechod_101-16);}.cls-16{fill:url(#Nepojmenovaný_přechod_128);}</style><linearGradient id="Nepojmenovan&#xFD;_p&#x159;echod_101" x1="52.05" y1="10.5" x2="52.05" y2="26.45" gradientUnits="userSpaceOnUse"><stop offset="0" stop-color="#fbf2ab"></stop><stop offset="0.13" stop-color="#bd9149"></stop><stop offset="0.5" stop-color="#fbf2ab"></stop><stop offset="0.87" stop-color="#cba65f"></stop><stop offset="1" stop-color="#fbf2ab"></stop></linearGradient><linearGradient id="Nepojmenovan&#xFD;_p&#x159;echod_101-2" x1="29.57" y1="10.5" x2="29.57" y2="26.45" xlink:href="#Nepojmenovan&#xFD;_p&#x159;echod_101"></linearGradient><linearGradient id="Nepojmenovan&#xFD;_p&#x159;echod_101-3" x1="37.83" y1="10.5" x2="37.83" y2="26.45" xlink:href="#Nepojmenovan&#xFD;_p&#x159;echod_101"></linearGradient><linearGradient id="Nepojmenovan&#xFD;_p&#x159;echod_101-4" x1="57.95" y1="10.5" x2="57.95" y2="26.45" xlink:href="#Nepojmenovan&#xFD;_p&#x159;echod_101"></linearGradient><linearGradient id="Nepojmenovan&#xFD;_p&#x159;echod_101-5" x1="44.74" y1="10.5" x2="44.74" y2="26.45" xlink:href="#Nepojmenovan&#xFD;_p&#x159;echod_101"></linearGradient><linearGradient id="Nepojmenovan&#xFD;_p&#x159;echod_101-6" x1="51.13" y1="10.5" x2="51.13" y2="26.45" xlink:href="#Nepojmenovan&#xFD;_p&#x159;echod_101"></linearGradient><linearGradient id="Nepojmenovan&#xFD;_p&#x159;echod_101-7" x1="65.77" y1="10.5" x2="65.77" y2="26.45" xlink:href="#Nepojmenovan&#xFD;_p&#x159;echod_101"></linearGradient><linearGradient id="Nepojmenovan&#xFD;_p&#x159;echod_101-9" x1="74.41" y1="10.5" x2="74.41" y2="26.45" xlink:href="#Nepojmenovan&#xFD;_p&#x159;echod_101"></linearGradient><linearGradient id="Nepojmenovan&#xFD;_p&#x159;echod_101-10" x1="81.94" y1="10.5" x2="81.94" y2="26.45" xlink:href="#Nepojmenovan&#xFD;_p&#x159;echod_101"></linearGradient><linearGradient id="Nepojmenovan&#xFD;_p&#x159;echod_101-11" x1="86.69" y1="10.5" x2="86.69" y2="26.45" xlink:href="#Nepojmenovan&#xFD;_p&#x159;echod_101"></linearGradient><linearGradient id="Nepojmenovan&#xFD;_p&#x159;echod_101-12" x1="91.5" y1="10.5" x2="91.5" y2="26.45" xlink:href="#Nepojmenovan&#xFD;_p&#x159;echod_101"></linearGradient><linearGradient id="Nepojmenovan&#xFD;_p&#x159;echod_101-13" x1="92.14" y1="10.5" x2="92.14" y2="26.45" xlink:href="#Nepojmenovan&#xFD;_p&#x159;echod_101"></linearGradient><linearGradient id="Nepojmenovan&#xFD;_p&#x159;echod_101-15" x1="96.32" y1="10.5" x2="96.32" y2="26.45" xlink:href="#Nepojmenovan&#xFD;_p&#x159;echod_101"></linearGradient><linearGradient id="Nepojmenovan&#xFD;_p&#x159;echod_101-16" x1="101.71" y1="10.5" x2="101.71" y2="26.45" xlink:href="#Nepojmenovan&#xFD;_p&#x159;echod_101"></linearGradient><linearGradient id="Nepojmenovan&#xFD;_p&#x159;echod_128" x1="10.11" y1="-0.2" x2="10.11" y2="27.63" gradientUnits="userSpaceOnUse"><stop offset="0" stop-color="#c69e55"></stop><stop offset="0.29" stop-color="#fff9b2"></stop><stop offset="0.41" stop-color="#c79e55"></stop><stop offset="0.51" stop-color="#faf0a9"></stop><stop offset="0.65" stop-color="#fbf3ac"></stop><stop offset="0.85" stop-color="#bd9149"></stop><stop offset="1" stop-color="#b8864d"></stop></linearGradient></defs><g id="Vrstva_2" data-name="Vrstva 2"><g id="Vrstva_1-2" data-name="Vrstva 1"><rect class="cls-1" x="34.36" y="24.62" width="35.78" height="1.57"></rect><path class="cls-1" d="M33.12,20.11H28.36V13.2a.87.87,0,0,1,.27-.64.86.86,0,0,1,.62-.27h3a.75.75,0,0,0,.61-.24.84.84,0,0,0,.21-.54.79.79,0,0,0-.21-.53.72.72,0,0,0-.61-.25h-3A2.46,2.46,0,0,0,26.8,13.2v6.91h-.37a.76.76,0,0,0-.61.24.77.77,0,0,0,0,1.08.76.76,0,0,0,.61.24h.37V25.4A.74.74,0,0,0,27,26a.83.83,0,0,0,1.08,0,.74.74,0,0,0,.24-.61V21.67h4.76a.77.77,0,0,0,.62-.24.8.8,0,0,0,0-1.08A.77.77,0,0,0,33.12,20.11Z"></path><path class="cls-1" d="M40.2,13.49a2.92,2.92,0,0,0-2.15-.91A3.11,3.11,0,0,0,35,15.65v5.59a2.88,2.88,0,0,0,.91,2.15,3,3,0,0,0,2.16.9,3.07,3.07,0,0,0,3.05-3.05V15.65A3,3,0,0,0,40.2,13.49Zm-.69,7.75a1.42,1.42,0,0,1-.43,1,1.37,1.37,0,0,1-1,.44,1.4,1.4,0,0,1-1-.44,1.42,1.42,0,0,1-.43-1V15.65a1.45,1.45,0,0,1,.43-1,1.44,1.44,0,0,1,1-.44,1.41,1.41,0,0,1,1,.44,1.45,1.45,0,0,1,.43,1Z"></path><path class="cls-1" d="M60.32,13.49a3,3,0,0,0-2.15-.91,3.09,3.09,0,0,0-3.07,3.07v5.59a2.91,2.91,0,0,0,.9,2.15,3,3,0,0,0,2.17.9,2.94,2.94,0,0,0,2.15-.9,2.91,2.91,0,0,0,.9-2.15V15.65A3,3,0,0,0,60.32,13.49Zm-.69,7.75a1.42,1.42,0,0,1-.43,1,1.39,1.39,0,0,1-1,.44,1.37,1.37,0,0,1-1.05-.44,1.43,1.43,0,0,1-.44-1V15.65a1.46,1.46,0,0,1,.44-1,1.4,1.4,0,0,1,1.05-.44,1.42,1.42,0,0,1,1,.44,1.45,1.45,0,0,1,.43,1Z"></path><path class="cls-1" d="M43.72,12.77a.84.84,0,0,0-.54-.21.82.82,0,0,0-.55.21.75.75,0,0,0-.25.62v8.9A1.9,1.9,0,0,0,43,23.7a2,2,0,0,0,1.42.59h2.29A.72.72,0,0,0,47.3,24a.79.79,0,0,0,.21-.53A.84.84,0,0,0,47.3,23a.75.75,0,0,0-.61-.25H44.4a.39.39,0,0,1-.31-.13.44.44,0,0,1-.12-.3v-8.9A.78.78,0,0,0,43.72,12.77Z"></path><path class="cls-1" d="M50.11,12.77a.84.84,0,0,0-.54-.21.87.87,0,0,0-.56.21.77.77,0,0,0-.24.62v8.9a1.9,1.9,0,0,0,.6,1.41,2,2,0,0,0,1.42.59h2.29a.72.72,0,0,0,.61-.25.79.79,0,0,0,.21-.53.84.84,0,0,0-.21-.54.75.75,0,0,0-.61-.25H50.79a.39.39,0,0,1-.31-.13.45.45,0,0,1-.13-.3v-8.9A.77.77,0,0,0,50.11,12.77Z"></path><path class="cls-1" d="M63.68,12.81a.91.91,0,0,0-.51-.23h-.06a.79.79,0,0,0-.53.21.75.75,0,0,0-.25.62V24.33h1.4A2.82,2.82,0,0,0,65,24.05a3.19,3.19,0,0,0,1-.73,3.08,3.08,0,0,0,1,.73,2.78,2.78,0,0,0,1.24.28h1.41V13.41a.78.78,0,0,0-.25-.62.82.82,0,0,0-.54-.21.79.79,0,0,0-.53.21.75.75,0,0,0-.25.62v9.33a1.43,1.43,0,0,1-.92-.48,1.41,1.41,0,0,1-.38-1V16.71a.71.71,0,0,0-.25-.61.83.83,0,0,0-.53-.2.88.88,0,0,0-.54.2.74.74,0,0,0-.25.61V21.3a1.4,1.4,0,0,1-.37,1,1.37,1.37,0,0,1-.9.48V13.41A.75.75,0,0,0,63.68,12.81Z"></path><rect class="cls-1" x="34.36" y="10.72" width="35.78" height="1.58"></rect><path class="cls-1" d="M74.61,10.73a3.93,3.93,0,0,0-3.89,3.89v7.67a3.9,3.9,0,0,0,7.79,0,.76.76,0,0,0-.25-.62.83.83,0,0,0-.53-.2.86.86,0,0,0-.54.2.79.79,0,0,0-.25.62,2.31,2.31,0,0,1-4,1.64,2.22,2.22,0,0,1-.7-1.64V14.62A2.2,2.2,0,0,1,73,13a2.32,2.32,0,0,1,4,1.63v2.72a.73.73,0,0,0,.25.6.82.82,0,0,0,.54.21.79.79,0,0,0,.53-.21.7.7,0,0,0,.25-.6V14.62a3.91,3.91,0,0,0-3.9-3.89Z"></path><path class="cls-1" d="M80.92,12.77a.8.8,0,0,0-.54-.21.82.82,0,0,0-.55.21.75.75,0,0,0-.25.62v8.9a1.9,1.9,0,0,0,.6,1.41,2,2,0,0,0,1.42.59h2.29a.76.76,0,0,0,.62-.25.83.83,0,0,0,.2-.53.88.88,0,0,0-.2-.54.79.79,0,0,0-.62-.25H81.6a.4.4,0,0,1-.31-.13.44.44,0,0,1-.12-.3v-8.9A.75.75,0,0,0,80.92,12.77Z"></path><path class="cls-1" d="M87.43,24.12a.76.76,0,0,0,.25-.61V13.39a.75.75,0,0,0-.25-.62.79.79,0,0,0-.53-.21.84.84,0,0,0-.54.21.78.78,0,0,0-.25.62V23.51a.8.8,0,0,0,.25.61.84.84,0,0,0,.54.21A.79.79,0,0,0,87.43,24.12Z"></path><path class="cls-1" d="M93,24.12a.79.79,0,0,0,1.07,0,.76.76,0,0,0,.25-.61V13.39a.75.75,0,0,0-.25-.62.79.79,0,0,0-1.07,0,.75.75,0,0,0-.25.62v.31a4.3,4.3,0,0,0-1.33-.82,4.18,4.18,0,0,0-1.57-.3h-.81V23.51a.73.73,0,0,0,.25.6.92.92,0,0,0,.54.22h.06a.86.86,0,0,0,.5-.22.75.75,0,0,0,.24-.6V14.27a2.76,2.76,0,0,1,1.55,1.08,3,3,0,0,1,.57,1.79v6.37A.76.76,0,0,0,93,24.12Z"></path><rect class="cls-1" x="78.9" y="24.62" width="26.9" height="1.57"></rect><rect class="cls-1" x="78.9" y="10.72" width="26.9" height="1.58"></rect><path class="cls-1" d="M97.06,24.12a.8.8,0,0,0,.25-.61V13.39a.78.78,0,0,0-.25-.62.82.82,0,0,0-.54-.21.79.79,0,0,0-.53.21.75.75,0,0,0-.25.62V23.51a.76.76,0,0,0,.25.61.79.79,0,0,0,.53.21A.82.82,0,0,0,97.06,24.12Z"></path><path class="cls-1" d="M103.66,18.23a.79.79,0,0,0,.53.21.84.84,0,0,0,.54-.21.77.77,0,0,0,.24-.62v-2a3.06,3.06,0,0,0-6.12,0v5.59a2.88,2.88,0,0,0,.91,2.15,3,3,0,0,0,4.32,0,2.9,2.9,0,0,0,.89-2.15.78.78,0,0,0-.24-.62.82.82,0,0,0-.54-.2.78.78,0,0,0-.53.2.76.76,0,0,0-.25.62,1.52,1.52,0,0,1-1.49,1.48,1.5,1.5,0,0,1-1.48-1.48V15.65a1.5,1.5,0,0,1,1.48-1.48,1.52,1.52,0,0,1,1.49,1.48v2A.75.75,0,0,0,103.66,18.23Z"></path><rect class="cls-1" x="34.36" y="24.62" width="35.78" height="1.57"></rect><path class="cls-1" d="M33.12,20.11H28.36V13.2a.87.87,0,0,1,.27-.64.86.86,0,0,1,.62-.27h3a.75.75,0,0,0,.61-.24.84.84,0,0,0,.21-.54.79.79,0,0,0-.21-.53.72.72,0,0,0-.61-.25h-3A2.46,2.46,0,0,0,26.8,13.2v6.91h-.37a.76.76,0,0,0-.61.24.77.77,0,0,0,0,1.08.76.76,0,0,0,.61.24h.37V25.4A.74.74,0,0,0,27,26a.83.83,0,0,0,1.08,0,.74.74,0,0,0,.24-.61V21.67h4.76a.77.77,0,0,0,.62-.24.8.8,0,0,0,0-1.08A.77.77,0,0,0,33.12,20.11Z"></path><path class="cls-1" d="M40.2,13.49a2.92,2.92,0,0,0-2.15-.91A3.11,3.11,0,0,0,35,15.65v5.59a2.88,2.88,0,0,0,.91,2.15,3,3,0,0,0,2.16.9,3.07,3.07,0,0,0,3.05-3.05V15.65A3,3,0,0,0,40.2,13.49Zm-.69,7.75a1.42,1.42,0,0,1-.43,1,1.37,1.37,0,0,1-1,.44,1.4,1.4,0,0,1-1-.44,1.42,1.42,0,0,1-.43-1V15.65a1.45,1.45,0,0,1,.43-1,1.44,1.44,0,0,1,1-.44,1.41,1.41,0,0,1,1,.44,1.45,1.45,0,0,1,.43,1Z"></path><path class="cls-1" d="M60.32,13.49a3,3,0,0,0-2.15-.91,3.09,3.09,0,0,0-3.07,3.07v5.59a2.91,2.91,0,0,0,.9,2.15,3,3,0,0,0,2.17.9,2.94,2.94,0,0,0,2.15-.9,2.91,2.91,0,0,0,.9-2.15V15.65A3,3,0,0,0,60.32,13.49Zm-.69,7.75a1.42,1.42,0,0,1-.43,1,1.39,1.39,0,0,1-1,.44,1.37,1.37,0,0,1-1.05-.44,1.43,1.43,0,0,1-.44-1V15.65a1.46,1.46,0,0,1,.44-1,1.4,1.4,0,0,1,1.05-.44,1.42,1.42,0,0,1,1,.44,1.45,1.45,0,0,1,.43,1Z"></path><path class="cls-1" d="M43.72,12.77a.84.84,0,0,0-.54-.21.82.82,0,0,0-.55.21.75.75,0,0,0-.25.62v8.9A1.9,1.9,0,0,0,43,23.7a2,2,0,0,0,1.42.59h2.29A.72.72,0,0,0,47.3,24a.79.79,0,0,0,.21-.53A.84.84,0,0,0,47.3,23a.75.75,0,0,0-.61-.25H44.4a.39.39,0,0,1-.31-.13.44.44,0,0,1-.12-.3v-8.9A.78.78,0,0,0,43.72,12.77Z"></path><path class="cls-1" d="M50.11,12.77a.84.84,0,0,0-.54-.21.87.87,0,0,0-.56.21.77.77,0,0,0-.24.62v8.9a1.9,1.9,0,0,0,.6,1.41,2,2,0,0,0,1.42.59h2.29a.72.72,0,0,0,.61-.25.79.79,0,0,0,.21-.53.84.84,0,0,0-.21-.54.75.75,0,0,0-.61-.25H50.79a.39.39,0,0,1-.31-.13.45.45,0,0,1-.13-.3v-8.9A.77.77,0,0,0,50.11,12.77Z"></path><path class="cls-1" d="M63.68,12.81a.91.91,0,0,0-.51-.23h-.06a.79.79,0,0,0-.53.21.75.75,0,0,0-.25.62V24.33h1.4A2.82,2.82,0,0,0,65,24.05a3.19,3.19,0,0,0,1-.73,3.08,3.08,0,0,0,1,.73,2.78,2.78,0,0,0,1.24.28h1.41V13.41a.78.78,0,0,0-.25-.62.82.82,0,0,0-.54-.21.79.79,0,0,0-.53.21.75.75,0,0,0-.25.62v9.33a1.43,1.43,0,0,1-.92-.48,1.41,1.41,0,0,1-.38-1V16.71a.71.71,0,0,0-.25-.61.83.83,0,0,0-.53-.2.88.88,0,0,0-.54.2.74.74,0,0,0-.25.61V21.3a1.4,1.4,0,0,1-.37,1,1.37,1.37,0,0,1-.9.48V13.41A.75.75,0,0,0,63.68,12.81Z"></path><rect class="cls-1" x="34.36" y="10.72" width="35.78" height="1.58"></rect><path class="cls-1" d="M74.61,10.73a3.93,3.93,0,0,0-3.89,3.89v7.67a3.9,3.9,0,0,0,7.79,0,.76.76,0,0,0-.25-.62.83.83,0,0,0-.53-.2.86.86,0,0,0-.54.2.79.79,0,0,0-.25.62,2.31,2.31,0,0,1-4,1.64,2.22,2.22,0,0,1-.7-1.64V14.62A2.2,2.2,0,0,1,73,13a2.32,2.32,0,0,1,4,1.63v2.72a.73.73,0,0,0,.25.6.82.82,0,0,0,.54.21.79.79,0,0,0,.53-.21.7.7,0,0,0,.25-.6V14.62a3.91,3.91,0,0,0-3.9-3.89Z"></path><path class="cls-1" d="M80.92,12.77a.8.8,0,0,0-.54-.21.82.82,0,0,0-.55.21.75.75,0,0,0-.25.62v8.9a1.9,1.9,0,0,0,.6,1.41,2,2,0,0,0,1.42.59h2.29a.76.76,0,0,0,.62-.25.83.83,0,0,0,.2-.53.88.88,0,0,0-.2-.54.79.79,0,0,0-.62-.25H81.6a.4.4,0,0,1-.31-.13.44.44,0,0,1-.12-.3v-8.9A.75.75,0,0,0,80.92,12.77Z"></path><path class="cls-1" d="M87.43,24.12a.76.76,0,0,0,.25-.61V13.39a.75.75,0,0,0-.25-.62.79.79,0,0,0-.53-.21.84.84,0,0,0-.54.21.78.78,0,0,0-.25.62V23.51a.8.8,0,0,0,.25.61.84.84,0,0,0,.54.21A.79.79,0,0,0,87.43,24.12Z"></path><path class="cls-1" d="M93,24.12a.79.79,0,0,0,1.07,0,.76.76,0,0,0,.25-.61V13.39a.75.75,0,0,0-.25-.62.79.79,0,0,0-1.07,0,.75.75,0,0,0-.25.62v.31a4.3,4.3,0,0,0-1.33-.82,4.18,4.18,0,0,0-1.57-.3h-.81V23.51a.73.73,0,0,0,.25.6.92.92,0,0,0,.54.22h.06a.86.86,0,0,0,.5-.22.75.75,0,0,0,.24-.6V14.27a2.76,2.76,0,0,1,1.55,1.08,3,3,0,0,1,.57,1.79v6.37A.76.76,0,0,0,93,24.12Z"></path><rect class="cls-1" x="78.9" y="24.62" width="26.9" height="1.57"></rect><rect class="cls-1" x="78.9" y="10.72" width="26.9" height="1.58"></rect><path class="cls-1" d="M97.06,24.12a.8.8,0,0,0,.25-.61V13.39a.78.78,0,0,0-.25-.62.82.82,0,0,0-.54-.21.79.79,0,0,0-.53.21.75.75,0,0,0-.25.62V23.51a.76.76,0,0,0,.25.61.79.79,0,0,0,.53.21A.82.82,0,0,0,97.06,24.12Z"></path><path class="cls-1" d="M103.66,18.23a.79.79,0,0,0,.53.21.84.84,0,0,0,.54-.21.77.77,0,0,0,.24-.62v-2a3.06,3.06,0,0,0-6.12,0v5.59a2.88,2.88,0,0,0,.91,2.15,3,3,0,0,0,4.32,0,2.9,2.9,0,0,0,.89-2.15.78.78,0,0,0-.24-.62.82.82,0,0,0-.54-.2.78.78,0,0,0-.53.2.76.76,0,0,0-.25.62,1.52,1.52,0,0,1-1.49,1.48,1.5,1.5,0,0,1-1.48-1.48V15.65a1.5,1.5,0,0,1,1.48-1.48,1.52,1.52,0,0,1,1.49,1.48v2A.75.75,0,0,0,103.66,18.23Z"></path><path class="cls-1" d="M15.61,5.8A38,38,0,0,0,10.84.66L10.32.21,9.79.66A39.13,39.13,0,0,0,5,5.8C1.83,9.94.21,13.79.21,17.26c0,3.27,1.73,6.14,5,8.3a18,18,0,0,0,4.89,2.25l.21.06.2-.06a18,18,0,0,0,4.89-2.25c3.28-2.16,5-5,5-8.3C20.43,13.79,18.81,9.94,15.61,5.8ZM10.32,2.35a38.32,38.32,0,0,1,5.5,6.51v2.92A6,6,0,0,1,15.43,14a21.88,21.88,0,0,0-4.59-5.67l-.52-.45-.52.45A21.82,21.82,0,0,0,5.2,14a6.21,6.21,0,0,1-.39-2.25V8.86A38.26,38.26,0,0,1,10.32,2.35ZM15,18.09a4.35,4.35,0,0,1-2.32,3.7,9.59,9.59,0,0,1-1.38.71c.4-1.92,1.54-3,2.82-4.19l.84-.82A4,4,0,0,1,15,18.09Zm-9.27-.6.85.82c1.28,1.2,2.41,2.27,2.81,4.2-1.43-.6-3.7-1.94-3.7-4.42A4,4,0,0,1,5.7,17.49ZM13,17.14a11.31,11.31,0,0,0-2.67,3.26,11.5,11.5,0,0,0-2.68-3.26A18,18,0,0,1,6.2,15.67a13.87,13.87,0,0,1,2-3.29,22.84,22.84,0,0,1,2.12-2.33,24.22,24.22,0,0,1,2.11,2.33,14.28,14.28,0,0,1,2,3.29A18.2,18.2,0,0,1,13,17.14Zm-11.18.12a13.29,13.29,0,0,1,1.4-5.56v.08A7.27,7.27,0,0,0,4.4,15.93a7.61,7.61,0,0,0-.34,2.16,5.93,5.93,0,0,0,3.1,5.07,11,11,0,0,0,2.36,1.11v1.66A16.94,16.94,0,0,1,6.07,24.2C3.24,22.33,1.81,20,1.81,17.26ZM14.57,24.2a17.46,17.46,0,0,1-3.45,1.73V24.27a10.74,10.74,0,0,0,2.35-1.11,5.93,5.93,0,0,0,3.1-5.07,7.27,7.27,0,0,0-.34-2.16,7.27,7.27,0,0,0,1.19-4.15V11.7a13.3,13.3,0,0,1,1.41,5.56C18.83,20,17.39,22.33,14.57,24.2Z"></path><rect class="cls-2" x="34.16" y="24.41" width="35.78" height="1.57"></rect><path class="cls-3" d="M32.92,19.9H28.16V13a.87.87,0,0,1,.27-.64.82.82,0,0,1,.61-.27H32a.75.75,0,0,0,.62-.25.79.79,0,0,0,.21-.53.82.82,0,0,0-.21-.54.78.78,0,0,0-.62-.25H29a2.36,2.36,0,0,0-1.73.72A2.42,2.42,0,0,0,26.59,13v6.9h-.37a.76.76,0,0,0-.61.25.79.79,0,0,0,0,1.07.76.76,0,0,0,.61.25h.37V25.2a.72.72,0,0,0,.25.61.85.85,0,0,0,1.07,0,.72.72,0,0,0,.25-.61V21.47h4.76a.76.76,0,0,0,.62-.25.82.82,0,0,0,0-1.07A.76.76,0,0,0,32.92,19.9Z"></path><path class="cls-4" d="M40,13.29a3,3,0,0,0-4.32,0,3,3,0,0,0-.91,2.16V21a3.07,3.07,0,0,0,6.13,0V15.45A3,3,0,0,0,40,13.29ZM39.31,21a1.49,1.49,0,0,1-.43,1,1.46,1.46,0,0,1-2.09,0,1.45,1.45,0,0,1-.43-1V15.45a1.42,1.42,0,0,1,.43-1,1.46,1.46,0,0,1,2.09,0,1.46,1.46,0,0,1,.43,1Z"></path><path class="cls-5" d="M60.12,13.29a3.07,3.07,0,0,0-5.23,2.16V21a2.91,2.91,0,0,0,.91,2.15A3.05,3.05,0,0,0,61,21V15.45A3,3,0,0,0,60.12,13.29ZM59.42,21a1.45,1.45,0,0,1-.43,1,1.41,1.41,0,0,1-1,.44,1.44,1.44,0,0,1-1.05-.44,1.45,1.45,0,0,1-.43-1V15.45a1.42,1.42,0,0,1,.43-1A1.4,1.4,0,0,1,58,14a1.37,1.37,0,0,1,1,.44,1.42,1.42,0,0,1,.43,1Z"></path><path class="cls-6" d="M43.51,12.56a.83.83,0,0,0-.53-.2.89.89,0,0,0-.56.2.79.79,0,0,0-.25.62v8.91a1.9,1.9,0,0,0,.6,1.41,2,2,0,0,0,1.42.59h2.29a.78.78,0,0,0,.62-.25.82.82,0,0,0,.21-.54.79.79,0,0,0-.21-.53.75.75,0,0,0-.62-.25H44.19a.46.46,0,0,1-.31-.13.44.44,0,0,1-.12-.3V13.18A.76.76,0,0,0,43.51,12.56Z"></path><path class="cls-7" d="M49.9,12.56a.83.83,0,0,0-.53-.2.87.87,0,0,0-.56.2.76.76,0,0,0-.25.62v8.91a1.9,1.9,0,0,0,.6,1.41,2,2,0,0,0,1.42.59h2.29a.78.78,0,0,0,.62-.25.81.81,0,0,0,.2-.54.78.78,0,0,0-.2-.53.75.75,0,0,0-.62-.25H50.58a.46.46,0,0,1-.31-.13.44.44,0,0,1-.12-.3V13.18A.76.76,0,0,0,49.9,12.56Z"></path><path class="cls-8" d="M63.47,12.61a.8.8,0,0,0-.5-.23h-.06a.88.88,0,0,0-.54.2.79.79,0,0,0-.25.62V24.13h1.41a2.92,2.92,0,0,0,1.24-.28,3.23,3.23,0,0,0,1-.73,3.35,3.35,0,0,0,1,.73,3,3,0,0,0,1.25.28h1.4V13.2a.76.76,0,0,0-.25-.62.83.83,0,0,0-.53-.2.88.88,0,0,0-.54.2.79.79,0,0,0-.25.62v9.34a1.41,1.41,0,0,1-.91-.48,1.4,1.4,0,0,1-.38-1V16.5a.75.75,0,0,0-.25-.61.85.85,0,0,0-.54-.19.82.82,0,0,0-.53.19.72.72,0,0,0-.25.61v4.6a1.43,1.43,0,0,1-.37,1,1.39,1.39,0,0,1-.91.48V13.2A.72.72,0,0,0,63.47,12.61Z"></path><rect class="cls-2" x="34.16" y="10.51" width="35.78" height="1.58"></rect><path class="cls-9" d="M74.41,10.52a4,4,0,0,0-3.9,3.9v7.67a3.9,3.9,0,0,0,7.79,0,.77.77,0,0,0-.24-.62.84.84,0,0,0-.54-.21.79.79,0,0,0-.53.21.75.75,0,0,0-.25.62,2.33,2.33,0,0,1-4.66,0V14.42a2.33,2.33,0,0,1,4-1.64,2.28,2.28,0,0,1,.68,1.64v2.72a.73.73,0,0,0,.25.6.83.83,0,0,0,.53.2.88.88,0,0,0,.54-.2.75.75,0,0,0,.24-.6V14.42a3.93,3.93,0,0,0-3.89-3.9Z"></path><path class="cls-10" d="M80.72,12.56a.88.88,0,0,0-.54-.2.89.89,0,0,0-.56.2.78.78,0,0,0-.24.62v8.91A1.93,1.93,0,0,0,80,23.5a2,2,0,0,0,1.43.59h2.28a.78.78,0,0,0,.62-.25.82.82,0,0,0,.21-.54.79.79,0,0,0-.21-.53.75.75,0,0,0-.62-.25H81.4a.42.42,0,0,1-.31-.13.41.41,0,0,1-.13-.3V13.18A.78.78,0,0,0,80.72,12.56Z"></path><path class="cls-11" d="M87.23,23.91a.78.78,0,0,0,.25-.61V13.18a.79.79,0,0,0-.25-.62.86.86,0,0,0-.54-.2.83.83,0,0,0-.53.2.76.76,0,0,0-.25.62V23.3a.75.75,0,0,0,.25.61.81.81,0,0,0,.53.22A.83.83,0,0,0,87.23,23.91Z"></path><path class="cls-12" d="M92.81,23.91a.77.77,0,0,0,1.08,0,.78.78,0,0,0,.24-.61V13.18a.78.78,0,0,0-.24-.62.83.83,0,0,0-1.08,0,.78.78,0,0,0-.24.62v.31a4.61,4.61,0,0,0-1.33-.81,4.23,4.23,0,0,0-1.58-.3h-.8V23.3a.75.75,0,0,0,.24.6,1,1,0,0,0,.54.23h.06a.91.91,0,0,0,.51-.23.75.75,0,0,0,.23-.6V14.07A2.71,2.71,0,0,1,92,15.14a3,3,0,0,1,.58,1.79V23.3A.78.78,0,0,0,92.81,23.91Z"></path><rect class="cls-13" x="78.7" y="24.41" width="26.9" height="1.57"></rect><rect class="cls-13" x="78.7" y="10.51" width="26.9" height="1.58"></rect><path class="cls-14" d="M96.85,23.91a.75.75,0,0,0,.25-.61V13.18a.76.76,0,0,0-.25-.62.83.83,0,0,0-.53-.2.88.88,0,0,0-.54.2.78.78,0,0,0-.24.62V23.3a.78.78,0,0,0,.24.61.85.85,0,0,0,.54.22A.81.81,0,0,0,96.85,23.91Z"></path><path class="cls-15" d="M103.45,18a.86.86,0,0,0,.54.2.83.83,0,0,0,.53-.2.76.76,0,0,0,.25-.62v-2a3,3,0,0,0-.9-2.16,2.9,2.9,0,0,0-2.15-.91,3.09,3.09,0,0,0-3.07,3.07V21a2.94,2.94,0,0,0,.9,2.15,3,3,0,0,0,2.17.9,3.07,3.07,0,0,0,3-3.05.73.73,0,0,0-.25-.62.79.79,0,0,0-.53-.21.82.82,0,0,0-.54.21.76.76,0,0,0-.25.62,1.46,1.46,0,0,1-.44,1,1.45,1.45,0,0,1-1,.44A1.52,1.52,0,0,1,100.23,21V15.45a1.48,1.48,0,0,1,2.53-1,1.43,1.43,0,0,1,.44,1v2A.79.79,0,0,0,103.45,18Z"></path><rect class="cls-2" x="34.16" y="24.41" width="35.78" height="1.57"></rect><path class="cls-3" d="M32.92,19.9H28.16V13a.87.87,0,0,1,.27-.64.82.82,0,0,1,.61-.27H32a.75.75,0,0,0,.62-.25.79.79,0,0,0,.21-.53.82.82,0,0,0-.21-.54.78.78,0,0,0-.62-.25H29a2.36,2.36,0,0,0-1.73.72A2.42,2.42,0,0,0,26.59,13v6.9h-.37a.76.76,0,0,0-.61.25.79.79,0,0,0,0,1.07.76.76,0,0,0,.61.25h.37V25.2a.72.72,0,0,0,.25.61.85.85,0,0,0,1.07,0,.72.72,0,0,0,.25-.61V21.47h4.76a.76.76,0,0,0,.62-.25.82.82,0,0,0,0-1.07A.76.76,0,0,0,32.92,19.9Z"></path><path class="cls-4" d="M40,13.29a3,3,0,0,0-4.32,0,3,3,0,0,0-.91,2.16V21a3.07,3.07,0,0,0,6.13,0V15.45A3,3,0,0,0,40,13.29ZM39.31,21a1.49,1.49,0,0,1-.43,1,1.46,1.46,0,0,1-2.09,0,1.45,1.45,0,0,1-.43-1V15.45a1.42,1.42,0,0,1,.43-1,1.46,1.46,0,0,1,2.09,0,1.46,1.46,0,0,1,.43,1Z"></path><path class="cls-5" d="M60.12,13.29a3.07,3.07,0,0,0-5.23,2.16V21a2.91,2.91,0,0,0,.91,2.15A3.05,3.05,0,0,0,61,21V15.45A3,3,0,0,0,60.12,13.29ZM59.42,21a1.45,1.45,0,0,1-.43,1,1.41,1.41,0,0,1-1,.44,1.44,1.44,0,0,1-1.05-.44,1.45,1.45,0,0,1-.43-1V15.45a1.42,1.42,0,0,1,.43-1A1.4,1.4,0,0,1,58,14a1.37,1.37,0,0,1,1,.44,1.42,1.42,0,0,1,.43,1Z"></path><path class="cls-6" d="M43.51,12.56a.83.83,0,0,0-.53-.2.89.89,0,0,0-.56.2.79.79,0,0,0-.25.62v8.91a1.9,1.9,0,0,0,.6,1.41,2,2,0,0,0,1.42.59h2.29a.78.78,0,0,0,.62-.25.82.82,0,0,0,.21-.54.79.79,0,0,0-.21-.53.75.75,0,0,0-.62-.25H44.19a.46.46,0,0,1-.31-.13.44.44,0,0,1-.12-.3V13.18A.76.76,0,0,0,43.51,12.56Z"></path><path class="cls-7" d="M49.9,12.56a.83.83,0,0,0-.53-.2.87.87,0,0,0-.56.2.76.76,0,0,0-.25.62v8.91a1.9,1.9,0,0,0,.6,1.41,2,2,0,0,0,1.42.59h2.29a.78.78,0,0,0,.62-.25.81.81,0,0,0,.2-.54.78.78,0,0,0-.2-.53.75.75,0,0,0-.62-.25H50.58a.46.46,0,0,1-.31-.13.44.44,0,0,1-.12-.3V13.18A.76.76,0,0,0,49.9,12.56Z"></path><path class="cls-8" d="M63.47,12.61a.8.8,0,0,0-.5-.23h-.06a.88.88,0,0,0-.54.2.79.79,0,0,0-.25.62V24.13h1.41a2.92,2.92,0,0,0,1.24-.28,3.23,3.23,0,0,0,1-.73,3.35,3.35,0,0,0,1,.73,3,3,0,0,0,1.25.28h1.4V13.2a.76.76,0,0,0-.25-.62.83.83,0,0,0-.53-.2.88.88,0,0,0-.54.2.79.79,0,0,0-.25.62v9.34a1.41,1.41,0,0,1-.91-.48,1.4,1.4,0,0,1-.38-1V16.5a.75.75,0,0,0-.25-.61.85.85,0,0,0-.54-.19.82.82,0,0,0-.53.19.72.72,0,0,0-.25.61v4.6a1.43,1.43,0,0,1-.37,1,1.39,1.39,0,0,1-.91.48V13.2A.72.72,0,0,0,63.47,12.61Z"></path><rect class="cls-2" x="34.16" y="10.51" width="35.78" height="1.58"></rect><path class="cls-9" d="M74.41,10.52a4,4,0,0,0-3.9,3.9v7.67a3.9,3.9,0,0,0,7.79,0,.77.77,0,0,0-.24-.62.84.84,0,0,0-.54-.21.79.79,0,0,0-.53.21.75.75,0,0,0-.25.62,2.33,2.33,0,0,1-4.66,0V14.42a2.33,2.33,0,0,1,4-1.64,2.28,2.28,0,0,1,.68,1.64v2.72a.73.73,0,0,0,.25.6.83.83,0,0,0,.53.2.88.88,0,0,0,.54-.2.75.75,0,0,0,.24-.6V14.42a3.93,3.93,0,0,0-3.89-3.9Z"></path><path class="cls-10" d="M80.72,12.56a.88.88,0,0,0-.54-.2.89.89,0,0,0-.56.2.78.78,0,0,0-.24.62v8.91A1.93,1.93,0,0,0,80,23.5a2,2,0,0,0,1.43.59h2.28a.78.78,0,0,0,.62-.25.82.82,0,0,0,.21-.54.79.79,0,0,0-.21-.53.75.75,0,0,0-.62-.25H81.4a.42.42,0,0,1-.31-.13.41.41,0,0,1-.13-.3V13.18A.78.78,0,0,0,80.72,12.56Z"></path><path class="cls-11" d="M87.23,23.91a.78.78,0,0,0,.25-.61V13.18a.79.79,0,0,0-.25-.62.86.86,0,0,0-.54-.2.83.83,0,0,0-.53.2.76.76,0,0,0-.25.62V23.3a.75.75,0,0,0,.25.61.81.81,0,0,0,.53.22A.83.83,0,0,0,87.23,23.91Z"></path><path class="cls-12" d="M92.81,23.91a.77.77,0,0,0,1.08,0,.78.78,0,0,0,.24-.61V13.18a.78.78,0,0,0-.24-.62.83.83,0,0,0-1.08,0,.78.78,0,0,0-.24.62v.31a4.61,4.61,0,0,0-1.33-.81,4.23,4.23,0,0,0-1.58-.3h-.8V23.3a.75.75,0,0,0,.24.6,1,1,0,0,0,.54.23h.06a.91.91,0,0,0,.51-.23.75.75,0,0,0,.23-.6V14.07A2.71,2.71,0,0,1,92,15.14a3,3,0,0,1,.58,1.79V23.3A.78.78,0,0,0,92.81,23.91Z"></path><rect class="cls-13" x="78.7" y="24.41" width="26.9" height="1.57"></rect><rect class="cls-13" x="78.7" y="10.51" width="26.9" height="1.58"></rect><path class="cls-14" d="M96.85,23.91a.75.75,0,0,0,.25-.61V13.18a.76.76,0,0,0-.25-.62.83.83,0,0,0-.53-.2.88.88,0,0,0-.54.2.78.78,0,0,0-.24.62V23.3a.78.78,0,0,0,.24.61.85.85,0,0,0,.54.22A.81.81,0,0,0,96.85,23.91Z"></path><path class="cls-15" d="M103.45,18a.86.86,0,0,0,.54.2.83.83,0,0,0,.53-.2.76.76,0,0,0,.25-.62v-2a3,3,0,0,0-.9-2.16,2.9,2.9,0,0,0-2.15-.91,3.09,3.09,0,0,0-3.07,3.07V21a2.94,2.94,0,0,0,.9,2.15,3,3,0,0,0,2.17.9,3.07,3.07,0,0,0,3-3.05.73.73,0,0,0-.25-.62.79.79,0,0,0-.53-.21.82.82,0,0,0-.54.21.76.76,0,0,0-.25.62,1.46,1.46,0,0,1-.44,1,1.45,1.45,0,0,1-1,.44A1.52,1.52,0,0,1,100.23,21V15.45a1.48,1.48,0,0,1,2.53-1,1.43,1.43,0,0,1,.44,1v2A.79.79,0,0,0,103.45,18Z"></path><path class="cls-16" d="M15.4,5.59A40.75,40.75,0,0,0,10.64.45L10.11,0,9.59.45A39.57,39.57,0,0,0,4.82,5.59C1.62,9.73,0,13.59,0,17.06c0,3.27,1.73,6.14,5,8.3a18.74,18.74,0,0,0,4.89,2.25l.2.05.21-.05a18.74,18.74,0,0,0,4.89-2.25c3.28-2.16,5-5,5-8.3C20.22,13.59,18.6,9.73,15.4,5.59ZM10.11,2.14a38.26,38.26,0,0,1,5.5,6.51v2.92a6.22,6.22,0,0,1-.38,2.25,22,22,0,0,0-4.6-5.67l-.52-.45-.52.45A21.86,21.86,0,0,0,5,13.82a6,6,0,0,1-.39-2.25V8.65A38.74,38.74,0,0,1,10.11,2.14Zm4.66,15.74a4.34,4.34,0,0,1-2.32,3.7,8.85,8.85,0,0,1-1.39.72c.4-1.92,1.54-3,2.82-4.2.28-.26.57-.53.85-.82C14.75,17.49,14.77,17.69,14.77,17.88Zm-9.28-.6c.29.29.57.56.85.82,1.28,1.2,2.42,2.28,2.82,4.2-1.43-.6-3.7-1.94-3.7-4.42Q5.46,17.6,5.49,17.28Zm7.29-.34a11.37,11.37,0,0,0-2.67,3.26,11.37,11.37,0,0,0-2.67-3.26A18.2,18.2,0,0,1,6,15.47a14.39,14.39,0,0,1,2-3.3,22.53,22.53,0,0,1,2.12-2.32,22.53,22.53,0,0,1,2.12,2.32,14,14,0,0,1,2,3.3A16.68,16.68,0,0,1,12.78,16.94ZM1.6,17.06A13.16,13.16,0,0,1,3,11.49v.08A7.25,7.25,0,0,0,4.2,15.73a7.26,7.26,0,0,0-.34,2.15A5.94,5.94,0,0,0,7,23a11.23,11.23,0,0,0,2.35,1.11v1.66A17.46,17.46,0,0,1,5.86,24C3,22.13,1.6,19.79,1.6,17.06ZM14.36,24a17.2,17.2,0,0,1-3.45,1.73V24.07A11.5,11.5,0,0,0,13.27,23a5.94,5.94,0,0,0,3.1-5.08A7.27,7.27,0,0,0,16,15.73a7.25,7.25,0,0,0,1.19-4.16v-.08a13.16,13.16,0,0,1,1.41,5.57C18.62,19.79,17.19,22.13,14.36,24Z"></path></g></g></svg>