<?xml version="1.0" encoding="utf-8"?>
<!-- Generator: Adobe Illustrator 22.1.0, SVG Export Plug-In . SVG Version: 6.00 Build 0)  -->
<svg version="1.1" id="Layer_1" xmlns="http://www.w3.org/2000/svg" xmlns:xlink="http://www.w3.org/1999/xlink" x="0px" y="0px"
	 width="53.8px" height="67.4px" viewBox="0 0 53.8 67.4" style="enable-background:new 0 0 53.8 67.4;" xml:space="preserve">
<style type="text/css">
	.st0{fill:#060507;}
	.st1{fill:none;stroke:#000000;stroke-width:2.8346;stroke-miterlimit:10;}
	.st2{fill:#191817;}
	.st3{fill:#FCFBFB;}
</style>
<g>
	<g>
		<g id="move_x5F_horizontal_1_">
			<g>
				<polygon class="st0" points="15.1,12.9 8,12.9 8,17.6 0.9,10.5 8,3.4 8,8.1 15.1,8.1 				"/>
				<polygon class="st0" points="34.6,8.1 41.8,8.1 41.8,3.4 48.9,10.5 41.8,17.6 41.8,12.9 34.6,12.9 				"/>
			</g>
		</g>
	</g>
	<g>
	</g>
	<g>
	</g>
	<g>
	</g>
	<g>
	</g>
	<g>
	</g>
	<g>
	</g>
	<g>
	</g>
	<g>
	</g>
	<g>
	</g>
	<g>
	</g>
	<g>
	</g>
	<g>
	</g>
	<g>
	</g>
	<g>
	</g>
	<g>
	</g>
</g>
<circle class="st1" cx="25" cy="10.4" r="8.1"/>
<g id="xVDEKj.tif">
	<g>
		<path class="st2" d="M52.5,36c0-4-3.2-6.2-7-4.9c-0.7,0.2-0.8,0.1-1.1-0.5c-1.5-2.7-3.4-3.3-6.4-2.3c-0.4,0.1-0.7,0.4-1-0.2
			c-1.5-3-3.9-3.4-7-2.4c0-2,0-3.8,0-5.7c0-0.4,0.1-3.7,0-3.7c0-1.8,0.1-3.3,0-4.9c-0.2-3-2.3-5.1-5.1-5c-2.7,0.1-4.6,2.2-4.7,5.4
			c0,1.4,0,2.8,0,4.4c-0.1-0.1,0,3.7,0,4.4c0,3-0.1,6,0,9.1c0,1-0.3,1.6-1.2,2.2c-2.5,1.6-4,4-4.1,6.9c-0.2,4.9-0.5,9.9,0.7,14.8
			c1.5,6.3,5.1,10.5,11.5,12.3c1,0.3,2.1,0.2,3,0.9h8.7c0.1-0.4,0.4-0.3,0.7-0.3c7.6-0.8,13-6.6,13.1-14.2
			C52.6,46.7,52.6,41.3,52.5,36z M50,54.4c-0.8,5-4.1,8-8.9,9.2c-4.4,1.2-9,1-13.4-0.1c-5-1.3-8.1-4.5-9.5-9.4
			c-1.5-5.2-1.4-10.5-0.8-15.8c0.2-1.8,1.1-3.3,2.9-4.4c0,2.6,0,4.9,0,7.2c0,0.8,0,1.7,1.1,1.7c1.1,0,1.1-0.9,1.1-1.7
			c0-9.6,0-19.1,0-28.7c0-0.7-0.1-1.3,0.2-2c0.5-1.2,1.4-1.9,2.7-1.7c1.2,0.1,2.1,0.9,2.2,2.2c0.1,0.6,0.1,1.2,0.1,1.8
			c0,8.2,0,16.5,0,24.7c0,0.4,0,0.8,0,1.3c0,0.9,0.2,1.7,1.3,1.6c0.9,0,1.1-0.8,1.1-1.6c0-2.3,0-4.6,0-6.9c0-0.6,0-1.2,0-1.8
			c0.1-1.5,0.9-2.5,2.5-2.6c1.4-0.1,2.6,1,2.7,2.6c0.1,1.8,0,3.5,0,5.3c0,1.1,0,2.3,0,3.4c0,0.8,0.2,1.5,1.1,1.6
			c0.9,0,1.2-0.7,1.1-1.5c0-1.6,0-3.1,0-4.7c0-0.5,0-1,0-1.4c0.2-1.5,1-2.5,2.5-2.6c1.3-0.1,2.6,1,2.7,2.7c0.1,2,0.1,4,0,6
			c0,0.8,0.1,1.6,1,1.6c1,0,1.3-0.7,1.2-1.6c0-1.1-0.1-2.2,0-3.3c0.1-1.4,0.9-2.4,2.4-2.5c1.5-0.1,2.4,0.6,2.8,2
			c0.1,0.2,0.2,0.5,0.2,0.7C50.2,41.9,50.9,48.2,50,54.4z"/>
		<path class="st3" d="M20.2,33.8c0,2.6,0,4.9,0,7.2c0,0.8,0,1.7,1.1,1.7c1.1,0,1.1-0.9,1.1-1.7c0-9.6,0-19.1,0-28.7
			c0-0.7-0.1-1.3,0.2-2c0.5-1.2,1.4-1.9,2.7-1.7c1.2,0.1,2.1,0.9,2.2,2.2c0.1,0.6,0.1,1.2,0.1,1.8c0,8.2,0,16.5,0,24.7
			c0,0.4,0,0.8,0,1.3c0,0.9,0.2,1.7,1.3,1.6c0.9,0,1.1-0.8,1.1-1.6c0-2.3,0-4.6,0-6.9c0-0.6,0-1.2,0-1.8c0.1-1.5,0.9-2.5,2.5-2.6
			c1.4-0.1,2.6,1,2.7,2.6c0.1,1.8,0,3.5,0,5.3c0,1.1,0,2.3,0,3.4c0,0.8,0.2,1.5,1.1,1.6c0.9,0,1.2-0.7,1.1-1.5c0-1.6,0-3.1,0-4.7
			c0-0.5,0-1,0-1.4c0.2-1.5,1-2.5,2.5-2.6c1.3-0.1,2.6,1,2.7,2.7c0.1,2,0.1,4,0,6c0,0.8,0.1,1.6,1,1.6c1,0,1.3-0.7,1.2-1.6
			c0-1.1-0.1-2.2,0-3.3c0.1-1.4,0.9-2.4,2.4-2.5c1.5-0.1,2.4,0.6,2.8,2c0.1,0.2,0.2,0.5,0.2,0.7c-0.1,6.3,0.6,12.6-0.3,18.8
			c-0.8,5-4.1,8-8.9,9.2c-4.4,1.2-9,1-13.4-0.1c-5-1.3-8.1-4.5-9.5-9.4c-1.5-5.2-1.4-10.5-0.8-15.8C17.6,36.5,18.4,35,20.2,33.8z"/>
	</g>
</g>
</svg>
