<?xml version="1.0" standalone="no"?>
<!DOCTYPE svg PUBLIC "-//W3C//DTD SVG 20010904//EN"
 "http://www.w3.org/TR/2001/REC-SVG-20010904/DTD/svg10.dtd">
<svg version="1.0" xmlns="http://www.w3.org/2000/svg"
 width="595.000000pt" height="424.000000pt" viewBox="0 0 595.000000 424.000000"
 preserveAspectRatio="xMidYMid meet">

<g transform="translate(0.000000,424.000000) scale(0.100000,-0.100000)"
fill="#000000" stroke="none">
<path d="M1527 4077 l-106 -163 -3 -124 -3 -124 -240 -77 -240 -77 -3 41 c-1
23 -5 52 -7 64 -5 20 -215 264 -233 271 -4 1 -52 -76 -106 -172 l-99 -174 2
-174 c1 -95 3 -222 4 -283 l2 -109 -95 -58 c-52 -33 -101 -62 -108 -67 -11 -6
-9 -15 8 -44 l21 -36 127 78 127 78 0 299 0 299 64 114 65 114 67 -74 68 -74
1 -102 c0 -57 4 -103 9 -103 5 0 154 47 332 104 324 103 324 104 326 132 0 16
2 81 2 145 l1 117 61 92 c33 51 64 89 68 84 4 -5 31 -47 60 -93 l52 -83 2
-121 2 -120 305 -188 c168 -104 308 -189 313 -189 4 0 7 47 7 105 l0 105 46
62 c25 35 49 64 54 66 5 2 29 -26 55 -62 l47 -66 -2 -340 -1 -339 88 -183 c48
-101 113 -234 143 -297 l56 -114 195 681 194 681 108 3 c59 2 107 3 107 3 0
-6 372 -1843 374 -1850 3 -5 5 89 6 210 1 121 3 279 6 350 2 72 4 285 5 475
l0 345 117 222 c64 123 119 222 122 222 3 0 53 -99 113 -220 l107 -221 0 -244
0 -244 23 -5 c12 -3 137 -25 277 -50 140 -26 262 -48 271 -51 9 -2 35 -41 59
-87 76 -146 112 -208 119 -205 3 2 18 10 34 17 15 8 27 18 27 22 0 14 -171
329 -178 329 -9 0 -490 88 -519 95 -23 5 -23 6 -23 219 l0 213 -111 224 c-61
123 -129 261 -150 307 -22 45 -43 82 -47 82 -4 0 -22 -28 -39 -62 -40 -79
-152 -290 -226 -429 l-57 -106 -1 -239 c-2 -439 1 -444 -118 155 -60 302 -100
525 -95 530 5 4 39 13 77 20 153 27 273 94 297 166 34 103 -76 189 -300 236
-147 31 -421 31 -560 2 -127 -28 -198 -56 -248 -98 -125 -107 -44 -237 185
-296 42 -10 88 -19 102 -19 14 0 32 -4 38 -8 10 -6 -26 -145 -147 -566 -88
-308 -162 -561 -165 -564 -2 -3 -16 19 -29 49 -13 30 -51 110 -85 179 l-61
125 0 348 0 349 -92 128 c-51 70 -96 126 -99 124 -3 -2 -46 -58 -94 -125 -68
-95 -88 -130 -91 -162 -2 -22 -5 -42 -7 -44 -2 -2 -103 58 -225 133 l-222 136
0 106 0 106 -91 145 c-51 80 -97 154 -104 163 -10 15 -26 -5 -118 -145z m2063
-142 c161 -28 270 -79 270 -125 0 -26 -50 -65 -112 -88 -147 -55 -470 -70
-660 -32 -136 28 -228 76 -228 120 0 42 94 92 229 120 112 24 379 26 501 5z"/>
<path d="M1443 3340 c-480 -68 -800 -552 -674 -1017 13 -45 39 -115 59 -155
l37 -73 689 0 690 0 37 73 c62 121 83 216 83 367 0 156 -20 240 -91 379 -63
123 -208 270 -328 333 -153 80 -343 115 -502 93z m297 -37 c36 -8 112 -38 170
-66 93 -45 116 -62 200 -146 98 -99 150 -178 190 -290 55 -152 61 -331 16
-484 -23 -76 -70 -187 -79 -187 -2 0 -18 22 -36 49 -56 88 -167 156 -273 168
-45 5 -60 13 -101 50 -41 38 -105 75 -169 96 -16 6 -18 22 -18 155 l0 148 68
-7 c37 -4 91 -10 120 -13 l52 -5 0 94 c0 89 -1 95 -21 95 -18 0 -122 -14 -191
-25 -27 -4 -28 -3 -28 36 l0 41 100 -7 100 -7 0 81 0 81 -27 -5 c-47 -9 -158
-25 -167 -25 -4 0 -5 32 -1 70 l7 70 -102 0 -102 0 7 -52 c4 -29 9 -61 11 -71
2 -13 -2 -16 -19 -12 -35 8 -150 25 -169 25 -16 0 -18 -11 -18 -86 l0 -86 28
6 c15 3 54 8 87 12 33 4 68 8 78 10 14 2 17 -5 17 -41 0 -43 -1 -44 -27 -40
-74 12 -207 24 -215 19 -13 -8 -8 -175 6 -180 6 -2 62 2 124 9 l112 13 0 -148
c0 -133 -2 -149 -17 -154 -54 -16 -130 -60 -171 -98 -39 -36 -56 -44 -99 -49
-104 -12 -204 -71 -270 -161 l-43 -58 -30 65 c-51 109 -71 192 -75 312 -4 124
10 208 54 321 83 213 294 405 513 468 125 36 277 39 408 9z m-119 -128 l-3
-68 51 6 c28 4 74 10 101 13 l50 7 0 -57 0 -58 -72 7 c-40 3 -85 8 -100 11
l-28 6 0 -66 c0 -74 -5 -70 85 -57 33 5 81 12 108 16 l47 6 0 -69 c0 -38 -2
-71 -5 -74 -3 -2 -31 -1 -63 3 -31 4 -83 10 -114 13 l-58 6 0 -170 0 -170 28
-6 c51 -13 127 -56 172 -99 39 -37 53 -43 101 -49 68 -7 120 -28 179 -71 44
-33 110 -113 110 -134 0 -8 -190 -11 -655 -11 -517 0 -655 3 -655 13 1 23 69
106 115 137 57 39 142 70 193 70 30 0 45 7 68 31 43 46 102 84 162 105 l52 19
0 167 c0 128 -3 168 -12 168 -7 -1 -60 -7 -118 -14 -58 -7 -106 -13 -107 -12
-1 1 -3 30 -5 66 l-3 65 50 0 c28 0 83 -4 123 -8 l72 -8 0 67 0 66 -42 -6
c-24 -3 -71 -8 -105 -12 l-63 -7 0 62 c0 33 3 61 6 61 4 0 49 -7 101 -16 52
-9 97 -14 99 -11 3 3 2 33 -4 66 -5 33 -5 62 0 63 4 2 38 2 75 2 l68 -2 -4
-67z"/>
<path d="M893 2740 c-26 -11 -39 -51 -25 -77 6 -10 35 -25 64 -33 45 -14 53
-19 53 -40 0 -22 -5 -25 -42 -28 -34 -2 -45 1 -55 17 -13 22 -38 29 -38 11 0
-6 11 -22 25 -35 31 -32 96 -34 125 -5 41 41 19 84 -56 106 -47 13 -55 19 -52
37 4 32 72 37 88 8 6 -12 15 -21 20 -21 15 0 12 36 -4 49 -20 16 -77 23 -103
11z"/>
<path d="M1060 2640 c0 -85 3 -111 13 -107 6 2 12 20 13 39 2 74 28 77 75 8
19 -28 42 -50 52 -50 9 0 17 1 17 3 0 2 -20 30 -44 63 l-45 59 40 40 c21 23
39 44 39 48 0 19 -29 2 -77 -45 l-53 -52 0 41 c0 24 -6 46 -15 53 -13 11 -15
-1 -15 -100z"/>
<path d="M730 1870 c-275 -38 -500 -120 -663 -240 -76 -57 -76 -53 -5 -133
l43 -47 73 55 c131 99 300 167 500 204 154 28 224 33 433 33 398 -2 848 -84
1362 -251 463 -151 801 -225 1257 -277 160 -18 648 -27 800 -14 425 36 779
130 1105 291 77 39 151 79 165 90 14 11 -9 2 -50 -20 -655 -346 -1519 -413
-2510 -195 -248 55 -458 118 -825 249 -282 101 -687 199 -990 241 -138 19
-592 28 -695 14z"/>
<path d="M5844 1614 c-18 -14 -18 -15 4 -4 12 6 22 13 22 15 0 8 -5 6 -26 -11z"/>
<path d="M2955 938 c-14 -29 -25 -59 -25 -65 0 -14 58 -18 75 -5 15 10 95 109
95 116 0 3 -27 6 -60 6 l-61 0 -24 -52z"/>
<path d="M3511 935 c-12 -30 -22 -58 -22 -62 0 -4 15 -8 33 -9 34 -1 69 27
118 96 l21 30 -63 0 -64 0 -23 -55z"/>
<path d="M4371 893 c-1 -7 -9 -13 -19 -13 -13 0 -34 -43 -91 -192 -41 -106
-75 -195 -77 -196 -1 -2 -15 16 -30 40 -15 23 -36 52 -46 64 -18 21 -18 22 23
63 40 40 41 42 37 97 -4 46 -10 61 -37 87 l-31 32 -156 3 -155 3 3 -228 3
-228 48 -3 47 -3 0 95 0 96 39 0 c45 0 73 -26 136 -129 l38 -62 81 3 81 3 21
60 21 60 74 3 74 3 25 -67 25 -66 175 4 c194 4 219 10 263 70 35 47 47 91 47
168 0 93 -37 165 -100 198 -39 19 -60 22 -167 22 l-124 0 1 -201 c1 -111 0
-203 -2 -205 -2 -2 -41 89 -87 201 -74 183 -86 205 -106 205 -13 0 -26 6 -28
13 -4 10 -6 10 -6 0z m-524 -340 c-1 -54 -3 -10 -3 97 0 107 2 151 3 98 2 -54
2 -142 0 -195z m901 280 l-88 -4 -3 -182 -2 -182 -3 188 -2 187 93 -2 92 -2
-87 -3z m-644 -22 c9 -10 19 -34 22 -53 5 -28 1 -40 -21 -64 l-26 -29 17 28
c23 38 20 84 -7 113 -12 13 -18 24 -12 24 5 0 18 -8 27 -19z m836 -93 c15 -60
9 -120 -15 -172 -18 -38 -66 -76 -95 -76 -8 0 3 9 26 19 53 24 77 78 76 173 0
68 -9 95 -46 138 -17 21 -15 20 11 -4 21 -19 35 -45 43 -78z m-882 60 c17 -14
15 -43 -4 -62 -11 -12 -36 -16 -90 -16 l-74 0 0 43 c0 24 2 46 4 48 8 8 151
-3 164 -13z m783 2 c52 -28 68 -159 26 -221 -22 -33 -25 -34 -95 -37 l-72 -3
0 136 0 135 61 0 c33 0 69 -5 80 -10z m-401 -45 c0 -5 -5 -3 -10 5 -5 8 -10
20 -10 25 0 6 5 3 10 -5 5 -8 10 -19 10 -25z m-37 -50 l16 -45 -35 0 c-19 0
-34 3 -34 6 0 18 24 84 31 84 4 0 14 -20 22 -45z m95 -92 c27 -68 46 -123 42
-123 -5 0 -17 24 -28 53 -11 28 -32 83 -46 121 -25 66 -30 84 -22 75 2 -2 26
-59 54 -126z m-199 48 c-6 -18 -13 -30 -15 -28 -2 2 1 18 7 36 6 18 13 30 15
28 2 -2 -1 -18 -7 -36z m-193 -115 c18 -28 31 -52 28 -55 -5 -5 -22 17 -68 89
-38 60 -3 30 40 -34z m150 3 c-14 -35 -25 -59 -25 -52 -1 15 41 124 46 120 2
-3 -7 -33 -21 -68z"/>
<path d="M1675 874 c-75 -27 -122 -96 -132 -190 -16 -150 69 -263 200 -266
100 -3 171 43 201 130 17 47 19 44 -46 61 -36 9 -37 8 -48 -25 -17 -51 -46
-74 -96 -74 -52 0 -90 28 -104 78 -32 115 18 212 110 212 34 0 90 -46 90 -74
0 -19 -1 -19 56 -5 48 12 49 19 19 79 -40 77 -150 110 -250 74z m206 -85 c17
-33 7 -29 -26 9 -25 30 -26 33 -8 23 13 -6 28 -21 34 -32z m-234 13 c-28 -31
-47 -89 -47 -145 0 -67 15 -114 49 -151 23 -25 23 -27 4 -17 -57 29 -86 186
-48 262 18 35 44 69 53 69 3 0 -2 -8 -11 -18z m237 -279 c-11 -14 -31 -33 -44
-41 -24 -14 -24 -14 2 9 14 13 31 35 38 47 6 13 14 21 18 18 3 -4 -3 -18 -14
-33z m-77 -59 c-3 -3 -12 -4 -19 -1 -8 3 -5 6 6 6 11 1 17 -2 13 -5z"/>
<path d="M2083 866 c-132 -62 -164 -269 -59 -384 60 -67 178 -84 264 -40 69
36 106 99 110 194 5 93 -16 152 -71 200 -70 59 -157 70 -244 30z m17 -48 c-52
-36 -73 -71 -78 -132 -6 -73 3 -116 34 -162 15 -21 19 -32 9 -24 -57 48 -76
184 -35 257 20 36 74 83 94 83 5 0 -6 -10 -24 -22z m180 -1 c97 -65 106 -232
17 -313 l-32 -29 26 30 c42 47 51 73 52 144 2 83 -23 136 -79 168 -21 13 -34
23 -28 23 6 0 26 -10 44 -23z m-45 -33 c81 -38 89 -205 13 -258 -28 -20 -90
-21 -127 -1 -78 40 -79 200 -2 252 40 27 71 29 116 7z"/>
<path d="M323 653 l2 -228 48 -3 47 -3 0 85 0 86 58 1 c120 2 165 21 193 82
24 54 24 81 -1 133 -31 63 -62 74 -218 74 l-130 0 1 -227z m155 180 l-98 -4
-3 -182 -2 -182 -3 188 -2 187 103 -2 102 -2 -97 -3z m141 -29 c37 -47 23
-131 -26 -153 -39 -18 -51 -12 -13 7 56 28 66 106 20 152 -11 11 -16 20 -11
20 5 0 19 -12 30 -26z m-44 -34 c21 -23 14 -66 -13 -74 -15 -5 -99 -9 -129 -7
-9 1 -13 18 -13 51 l0 50 68 0 c56 0 72 -4 87 -20z"/>
<path d="M712 711 c5 -183 16 -225 68 -263 56 -40 185 -40 240 1 55 40 63 69
68 257 l5 174 -51 0 -50 0 -4 -166 c-3 -160 -4 -166 -27 -185 -30 -25 -92 -25
-122 0 -23 19 -24 25 -28 185 l-3 166 -50 0 -51 0 5 -169z m96 -212 c34 -30
34 -36 0 -18 -38 20 -48 68 -46 221 l2 143 5 -158 6 -159 33 -29z m217 21
c-16 -31 -61 -60 -92 -60 -13 1 46 28 63 30 1 0 9 15 18 34 12 26 17 70 18
178 l2 143 3 -147 c3 -118 0 -154 -12 -178z m-148 -56 c-3 -3 -12 -4 -19 -1
-8 3 -5 6 6 6 11 1 17 -2 13 -5z"/>
<path d="M1133 653 l2 -228 47 -3 47 -3 3 138 3 137 90 -134 90 -135 48 -3 47
-3 0 230 0 231 -50 0 -50 0 0 -137 0 -138 -92 138 -91 137 -48 0 -48 0 2 -227z
m191 2 l121 -179 5 185 6 184 3 -157 c4 -173 4 -193 2 -208 -3 -32 -39 10
-146 172 l-120 181 -5 -184 -6 -184 -2 188 c-1 140 1 188 10 185 6 -2 66 -85
132 -183z"/>
<path d="M2402 823 c12 -32 52 -134 89 -228 l66 -170 41 -3 c49 -4 43 -14 133
220 35 92 67 168 70 168 3 0 36 -45 72 -100 l67 -100 0 -95 0 -95 50 0 50 0 0
98 0 98 91 132 90 132 -59 0 -59 0 -56 -86 -55 -86 -56 86 -56 87 -81 -3 -82
-3 -56 -152 c-30 -84 -59 -149 -62 -145 -4 4 -31 73 -59 155 l-53 147 -53 0
-53 0 21 -57z m81 -60 c15 -42 26 -78 24 -79 -2 -2 -17 32 -34 76 -17 44 -27
80 -24 80 4 0 19 -34 34 -77z m258 26 c-11 -24 -20 -41 -20 -37 -1 12 31 89
35 85 3 -2 -4 -24 -15 -48z m163 -27 c71 -111 81 -128 69 -117 -20 19 -133
195 -126 195 5 0 30 -35 57 -78z m196 18 c-22 -33 -43 -60 -46 -60 -2 0 14 27
36 60 22 33 43 60 46 60 2 0 -14 -27 -36 -60z m-389 -67 c-12 -20 -14 -14 -5
12 4 9 9 14 11 11 3 -2 0 -13 -6 -23z m-181 -78 c0 -5 -5 -3 -10 5 -5 8 -10
20 -10 25 0 6 5 3 10 -5 5 -8 10 -19 10 -25z m457 -127 c-2 -24 -4 -5 -4 42 0
47 2 66 4 43 2 -24 2 -62 0 -85z"/>
<path d="M3372 708 c3 -188 11 -217 69 -260 53 -40 182 -39 238 2 53 37 64 78
69 262 l5 168 -57 0 -57 0 1 -132 c2 -198 2 -196 -20 -218 -26 -26 -89 -27
-121 -1 -23 19 -24 25 -27 185 l-4 166 -50 0 -50 0 4 -172z m96 -209 c34 -30
34 -36 1 -19 -39 21 -48 60 -49 206 -1 190 3 191 9 1 l6 -159 33 -29z m227 52
c-6 -32 -47 -81 -68 -81 -5 0 2 9 16 20 37 29 47 75 49 225 l2 130 4 -130 c1
-71 0 -145 -3 -164z m-152 -88 c-7 -2 -19 -2 -25 0 -7 3 -2 5 12 5 14 0 19 -2
13 -5z m60 0 c-7 -2 -21 -2 -30 0 -10 3 -4 5 12 5 17 0 24 -2 18 -5z"/>
<path d="M385 303 c-28 -7 -55 -33 -55 -53 0 -26 26 -43 94 -60 44 -12 62 -21
64 -34 5 -25 -15 -36 -64 -36 -28 0 -46 6 -59 20 -17 18 -45 27 -45 14 0 -33
55 -64 112 -64 36 0 83 24 92 46 14 37 -50 84 -115 84 -8 0 -24 6 -34 14 -16
12 -17 16 -6 30 20 24 86 21 110 -5 23 -25 46 -17 31 11 -16 30 -74 45 -125
33z"/>
<path d="M841 297 c-94 -33 -100 -146 -9 -193 80 -41 183 18 181 103 -1 40
-25 70 -70 89 -39 17 -57 17 -102 1z m114 -42 c66 -65 -14 -167 -103 -130 -87
37 -59 155 38 155 30 0 47 -6 65 -25z"/>
<path d="M1850 297 c-27 -9 -36 -18 -38 -38 -4 -34 19 -57 66 -64 81 -14 108
-35 80 -63 -28 -28 -128 -6 -128 28 0 5 -7 7 -15 4 -42 -17 22 -74 82 -74 37
0 84 16 95 33 27 42 -6 81 -79 93 -24 3 -50 12 -60 19 -15 11 -15 15 -4 29 20
24 86 21 105 -5 9 -14 21 -19 31 -15 37 14 -31 67 -84 65 -9 0 -32 -5 -51 -12z"/>
<path d="M572 198 l3 -103 79 0 c54 0 81 4 83 13 4 9 -13 12 -61 12 l-66 0 0
90 c0 84 -1 90 -20 90 -20 0 -21 -5 -18 -102z"/>
<path d="M1041 288 c1 -26 94 -193 109 -196 10 -2 32 31 68 103 45 90 49 105
33 105 -13 0 -29 -23 -57 -85 -22 -47 -41 -85 -44 -85 -3 0 -21 37 -41 83 -21
47 -43 83 -53 85 -9 2 -16 -2 -15 -10z"/>
<path d="M1303 201 c-1 -72 2 -101 11 -104 27 -11 179 -2 184 11 3 9 -17 12
-77 12 l-81 0 0 35 0 35 71 0 c52 0 70 3 66 13 -2 8 -26 12 -68 13 l-64 1 -3
32 -3 31 75 0 c44 0 76 4 76 10 0 6 -38 10 -93 10 l-92 0 -2 -99z"/>
<path d="M1547 293 c-2 -4 -4 -51 -3 -103 1 -77 4 -95 16 -95 12 0 16 18 20
79 l5 78 68 -81 c37 -44 74 -81 82 -81 12 0 15 20 15 105 0 85 -3 105 -15 105
-11 0 -15 -18 -17 -77 l-3 -78 -64 75 c-60 70 -93 93 -104 73z"/>
<path d="M2052 198 c2 -84 6 -103 18 -103 10 0 16 12 18 36 2 20 11 44 21 53
18 16 21 14 67 -38 27 -31 57 -56 67 -56 25 0 22 7 -33 67 -27 30 -50 58 -50
62 0 4 20 22 45 40 50 36 53 41 27 41 -10 0 -45 -21 -78 -46 l-59 -46 -3 46
c-3 38 -6 46 -23 46 -19 0 -20 -6 -17 -102z"/>
<path d="M2300 196 l0 -104 95 -1 c78 -1 95 2 95 14 0 12 -16 15 -80 15 l-80
0 0 35 0 35 76 0 c56 0 75 3 71 13 -2 8 -27 12 -73 12 l-69 1 -3 32 -3 32 80
0 c47 0 81 4 81 10 0 6 -38 10 -95 10 l-95 0 0 -104z"/>
<path d="M2628 213 l-3 -88 -32 -3 c-25 -2 -33 1 -38 18 -4 12 -12 19 -18 17
-37 -12 6 -67 52 -67 16 0 39 9 52 19 21 17 24 28 25 105 2 78 0 86 -17 86
-16 0 -19 -10 -21 -87z"/>
<path d="M2922 198 c2 -84 6 -103 18 -103 11 0 16 13 18 48 3 45 4 47 35 47
24 0 41 -11 78 -50 26 -27 54 -50 63 -50 24 0 20 11 -23 58 l-39 42 27 13 c32
15 39 52 15 78 -14 16 -31 19 -106 19 l-89 0 3 -102z m168 63 c16 -32 -12 -51
-76 -51 l-54 0 0 35 0 35 60 0 c48 0 61 -4 70 -19z"/>
<path d="M3190 195 l0 -105 95 0 c78 0 95 3 95 15 0 12 -16 15 -80 15 l-80 0
0 35 0 35 76 0 c56 0 75 3 72 13 -3 8 -30 13 -76 15 l-72 3 0 29 0 30 80 0
c47 0 80 4 80 10 0 6 -38 10 -95 10 l-95 0 0 -105z"/>
<path d="M3430 194 c0 -95 2 -105 18 -102 13 3 17 13 17 46 l-1 42 54 0 c76 0
112 21 112 67 0 37 -36 53 -122 53 l-78 0 0 -106z m148 77 c8 -4 12 -19 10
-32 -3 -21 -9 -25 -60 -29 -32 -3 -59 -2 -59 2 -1 5 -1 15 -1 23 0 43 2 45 50
45 26 0 53 -4 60 -9z"/>
<path d="M3671 221 c3 -60 9 -84 23 -100 41 -45 157 -35 176 15 6 14 10 57 10
95 0 61 -2 69 -19 69 -16 0 -18 -8 -18 -75 0 -45 -5 -81 -13 -90 -15 -18 -91
-20 -108 -3 -7 7 -12 43 -12 90 0 73 -1 78 -21 78 -20 0 -21 -4 -18 -79z"/>
<path d="M3933 198 l2 -103 78 1 c59 1 82 5 97 19 26 23 26 60 0 78 -18 13
-19 16 -5 27 20 17 19 43 -3 63 -14 13 -38 17 -95 17 l-77 0 3 -102z m131 76
c18 -7 22 -39 6 -49 -5 -3 -30 -7 -55 -9 -45 -3 -45 -3 -45 31 0 32 1 33 39
33 22 0 46 -3 55 -6z m10 -90 c9 -3 16 -16 16 -29 0 -27 -17 -35 -76 -35 -44
0 -44 0 -44 35 0 35 0 35 44 35 24 0 51 -3 60 -6z"/>
<path d="M4182 198 l3 -103 78 -3 c64 -3 77 -1 77 12 0 11 -14 16 -61 18 l-61
3 0 88 c0 79 -2 87 -19 87 -18 0 -20 -7 -17 -102z"/>
<path d="M4390 194 c0 -80 3 -105 13 -102 8 3 13 36 15 106 2 86 0 102 -13
102 -12 0 -15 -17 -15 -106z"/>
<path d="M4480 201 c0 -76 3 -100 14 -104 20 -8 26 1 26 38 0 18 8 39 19 49
18 16 21 14 66 -36 40 -44 85 -72 85 -52 0 3 -22 31 -50 61 -27 30 -50 58 -50
62 0 4 20 22 45 40 50 36 53 41 26 41 -11 0 -44 -20 -74 -45 -31 -25 -58 -45
-61 -45 -3 0 -6 20 -6 45 0 38 -3 45 -20 45 -19 0 -20 -7 -20 -99z"/>
<path d="M4716 288 c4 -7 25 -34 46 -59 30 -36 38 -53 38 -86 0 -26 5 -43 14
-46 21 -8 26 2 26 48 0 34 7 50 45 94 25 29 45 55 45 57 0 2 -8 4 -18 4 -10 0
-33 -20 -52 -45 -19 -25 -36 -45 -39 -45 -3 0 -21 21 -40 45 -19 26 -41 45
-53 45 -13 0 -17 -4 -12 -12z"/>
</g>
</svg>
